<svg xmlns="http://www.w3.org/2000/svg" width="32" height="40">
	<path d="M30 20.75c-0.69 0.001-1.249 0.56-1.25 1.25v6.75h-25.5v-6.75c0-0.69-0.56-1.25-1.25-1.25s-1.25 0.56-1.25 1.25v0 8c0 0.69 0.56 1.25 1.25 1.25h28c0.69-0.001 1.249-0.56 1.25-1.25v-8c-0.001-0.69-0.56-1.249-1.25-1.25h-0zM15.116 24.885c0.012 0.012 0.029 0.016 0.041 0.027 0.103 0.099 0.223 0.18 0.356 0.239l0.008 0.003 0.001 0c0.141 0.060 0.306 0.095 0.478 0.095 0.345 0 0.657-0.139 0.883-0.365l5.001-5c0.226-0.226 0.366-0.539 0.366-0.884 0-0.691-0.56-1.251-1.251-1.251-0.345 0-0.658 0.14-0.884 0.366l-2.865 2.867v-18.982c0-0.69-0.56-1.25-1.25-1.25s-1.25 0.56-1.25 1.25v0 18.981l-2.866-2.866c-0.226-0.226-0.539-0.366-0.884-0.366-0.691 0-1.251 0.56-1.251 1.251 0 0.346 0.14 0.658 0.367 0.885v0z" />
</svg>
